PathFileType	4	(X/Y/Z)	 s07c0201.trc
DataRate	CameraRate	NumFrames	NumMarkers	Units	OrigDataRate	OrigDataStartFrame	OrigNumFrames
200	200	6	48	mm	200	1	2000
Frame#	Time	racr			lacr			c7			jug			rlel			rdr			llel			ldr			s2			lic			ric			lasi			rasi			rpsi			lpsi			rgt			lgt			rth1			rth2			rth3			rth4			rlfc			rmfc			rsh1			rsh2			rsh3			rsh4			rlmal			rcal			rtoe			rmt5			lth1			lth2			lth4			lth3			llfc			lmfc			lsh1			lsh2			lsh3			lsh4			llmal			lcal			ltoe			lmt5			SBIKE			LBIKE			RBIKE			
		X1	Y1	Z1	X2	Y2	Z2	X3	Y3	Z3	X4	Y4	Z4	X5	Y5	Z5	X6	Y6	Z6	X7	Y7	Z7	X8	Y8	Z8	X9	Y9	Z9	X10	Y10	Z10	X11	Y11	Z11	X12	Y12	Z12	X13	Y13	Z13	X14	Y14	Z14	X15	Y15	Z15	X16	Y16	Z16	X17	Y17	Z17	X18	Y18	Z18	X19	Y19	Z19	X20	Y20	Z20	X21	Y21	Z21	X22	Y22	Z22	X23	Y23	Z23	X24	Y24	Z24	X25	Y25	Z25	X26	Y26	Z26	X27	Y27	Z27	X28	Y28	Z28	X29	Y29	Z29	X30	Y30	Z30	X31	Y31	Z31	X32	Y32	Z32	X33	Y33	Z33	X34	Y34	Z34	X35	Y35	Z35	X36	Y36	Z36	X37	Y37	Z37	X38	Y38	Z38	X39	Y39	Z39	X40	Y40	Z40	X41	Y41	Z41	X42	Y42	Z42	X43	Y43	Z43	X44	Y44	Z44	X45	Y45	Z45	X46	Y46	Z46	X47	Y47	Z47	X48	Y48	Z48	
1	0.0050	407.479619	1487.397196	-65.736500	402.517366	1465.948790	-348.643418	381.743174	1522.296276	-215.555041	354.578778	1381.569966	-212.685751	509.733508	1169.304377	25.917526	691.023275	935.798700	-40.719382	514.081278	1165.505456	-454.638794	691.696403	929.411336	-421.487316	-141.245274	1202.389321	-238.103246	19.028488	1267.300136	-374.890352	18.577654	1257.643479	-80.581900	58.855056	1189.754083	-347.998734	37.854615	1202.568300	-100.780779	-119.656027	1241.945009	-185.625172	-105.442920	1252.993269	-293.290449	-28.912035	1130.763421	-38.146390	-25.608607	1103.225038	-406.352710	107.681675	1081.708389	-27.019634	195.174535	1075.828891	-33.579059	268.443841	1032.206559	-26.873585	205.092555	1107.716345	-50.870643	395.201345	957.749630	-56.730781	399.784316	947.148072	-163.301446	339.893217	823.532339	-45.780664	327.575067	737.866267	-68.251802	275.779757	668.468755	-73.184932	347.487874	736.739186	-104.464561	216.363378	549.484498	-85.235453	146.414700	524.159649	-118.504254	424.874579	442.225635	-114.474991	338.150134	426.161824	-48.181920	38.043005	996.730651	-413.471755	106.757805	942.391536	-414.984424	135.990756	962.004069	-405.173609	138.973411	858.032634	-409.667641	226.571424	702.499328	-375.773539	211.379156	685.661798	-280.287425	143.146620	578.216349	-401.570592	113.337228	499.446883	-382.654302	47.484455	438.974442	-393.876248	114.726232	500.931327	-341.157291	-35.609011	332.913908	-393.261697	-113.307893	312.752975	-361.073785	158.002659	213.100139	-352.710202	75.078965	212.342410	-417.738215	-260.039410	976.852163	-229.574347	-76.116607	83.508321	-435.311998	-81.762412	79.204004	-37.689723	
2	0.0100	407.517350	1487.441568	-65.749637	402.544885	1465.989264	-348.564845	381.740672	1522.311494	-215.535078	354.576760	1381.613418	-212.680738	509.753521	1169.317784	25.954487	691.026451	935.821382	-40.727480	514.094538	1165.544578	-454.639430	691.706755	929.458306	-421.531511	-141.181824	1202.405064	-238.154721	19.101169	1267.256223	-374.910050	18.560807	1257.646784	-80.582791	58.901873	1189.752804	-348.002226	37.880951	1202.553528	-100.778858	-119.603976	1241.934305	-185.664088	-105.372826	1252.992963	-293.335324	-28.894886	1130.787476	-38.154325	-25.578017	1103.225963	-406.386804	107.755152	1081.800704	-27.068348	195.241648	1075.958389	-33.640225	268.521914	1032.388598	-26.924276	205.157869	1107.938290	-50.913675	395.276359	957.936631	-56.762484	399.842809	947.320714	-163.364732	339.951392	823.745031	-45.827791	327.607203	738.070703	-68.268121	275.760332	668.724909	-73.209643	347.511628	736.913794	-104.478866	216.344420	549.689692	-85.239273	146.387539	524.514868	-118.484075	424.789745	442.281340	-114.484482	338.057384	426.296257	-48.195967	38.041799	996.714595	-413.503216	106.756180	942.353743	-415.024408	136.004469	961.956218	-405.191529	138.943121	857.990336	-409.748729	226.460941	702.425689	-375.844029	211.317346	685.596235	-280.350551	143.056172	578.128801	-401.623887	113.285092	499.350276	-382.703692	47.465729	438.857212	-393.908170	114.688156	500.845785	-341.215300	-35.590785	332.788686	-393.266445	-113.254512	312.496477	-361.112533	158.088861	213.034084	-352.722545	75.184037	212.232338	-417.719326	-260.034157	976.865593	-229.587638	-76.118272	83.533367	-435.313163	-81.764617	79.196204	-37.689739	
3	0.0150	407.528781	1487.484484	-65.811887	402.575805	1466.034964	-348.510695	381.767376	1522.291624	-215.517473	354.568488	1381.641147	-212.586668	509.726189	1169.322545	25.987065	691.014823	935.850751	-40.751837	514.114042	1165.565409	-454.608716	691.724469	929.459145	-421.526652	-141.152631	1202.401052	-238.173616	19.166966	1267.243296	-374.907671	18.596371	1257.654406	-80.613969	59.403337	1189.670086	-348.267474	37.896548	1202.558134	-100.792853	-119.580843	1241.927212	-185.704015	-105.330130	1252.984527	-293.369245	-28.884956	1130.811340	-38.169681	-25.559554	1103.207379	-406.429503	107.797369	1081.900339	-27.102890	195.291798	1076.084574	-33.692283	268.580089	1032.557008	-26.966936	205.178206	1108.067079	-50.988940	395.347395	958.124083	-56.813548	399.898934	947.480703	-163.428124	340.009069	823.931891	-45.861923	327.631874	738.199115	-68.291273	275.741298	668.937207	-73.213445	347.561761	737.099268	-104.456437	216.377088	549.869880	-85.287673	146.370591	524.800365	-118.460359	424.740914	442.318373	-114.492679	337.999562	426.412076	-48.209214	38.042211	996.692100	-413.527352	106.737503	942.303198	-415.039805	135.990919	961.912772	-405.226619	138.888434	857.942126	-409.804918	226.371660	702.347076	-375.907427	211.255239	685.505652	-280.398086	142.982397	578.036440	-401.675979	113.255629	499.250749	-382.730822	47.427615	438.752027	-393.921774	114.660108	500.752161	-341.239819	-35.588166	332.648183	-393.269100	-113.221964	312.277057	-361.112367	158.165933	212.985078	-352.723078	75.264605	212.109884	-417.699803	-260.028464	976.859814	-229.588410	-76.131931	83.524149	-435.303031	-81.768020	79.227458	-37.679696	
4	0.0200	407.551769	1487.510127	-65.831008	402.610209	1466.082149	-348.463817	381.785123	1522.279043	-215.468498	355.252578	1380.476196	-208.731395	509.404309	1170.025219	26.709244	691.019504	935.840640	-40.725834	514.133907	1165.595798	-454.597961	690.844422	927.245869	-416.885751	-141.106195	1202.399906	-238.222711	19.870563	1267.024918	-375.382061	18.540177	1257.761913	-80.726868	59.439487	1189.653404	-348.284046	37.937033	1202.555147	-100.845202	-119.554234	1241.942775	-185.724751	-105.137979	1253.205038	-293.959929	-28.857430	1130.835562	-38.170044	-25.260435	1103.268177	-405.766609	107.983816	1081.862693	-27.090583	195.337059	1076.217841	-33.732875	268.545317	1032.632681	-27.036718	205.230877	1108.177007	-51.068108	395.399072	958.187573	-56.841514	399.967418	947.641053	-163.445588	340.067392	824.094023	-45.888427	327.862739	738.238561	-68.041759	275.767426	669.140450	-73.221541	347.872246	737.005792	-104.335130	216.071532	550.629259	-84.684435	146.368323	525.031031	-118.437691	424.590255	442.960437	-114.273522	338.018292	426.453305	-48.234658	38.014796	996.670701	-413.567496	106.978462	941.303458	-414.263052	135.963260	961.923197	-405.351000	138.895906	858.194091	-409.027446	226.273161	702.176303	-376.013575	211.281160	685.419574	-280.401144	142.892304	577.923405	-401.681931	113.309258	498.793380	-382.938820	47.399150	438.635685	-393.932204	114.877982	500.473508	-341.087116	-35.772452	332.395425	-393.008871	-113.220770	312.095531	-361.105063	158.268139	212.868294	-352.729458	75.310914	211.961789	-417.694911	-260.120974	976.889616	-229.999031	-76.135039	83.530074	-435.299754	-81.754886	79.232208	-37.680509	
5	0.0250	407.529037	1487.650989	-65.765468	402.646166	1465.961163	-348.445866	381.821069	1522.267245	-215.473471	355.795363	1379.377393	-206.589942	509.464846	1170.082999	26.844563	690.845326	935.949794	-40.570462	514.191719	1162.724483	-446.477641	690.067326	924.395418	-412.678971	-141.108446	1202.441763	-238.242202	13.951585	1261.679529	-360.699532	18.560559	1257.791135	-80.770948	60.547441	1188.054078	-342.546606	38.092779	1202.383314	-100.427703	-119.534799	1241.997157	-185.741240	-105.106716	1253.200344	-294.037425	-28.963832	1131.075035	-38.052673	-22.871116	1101.410510	-401.327553	107.856521	1082.168407	-27.081578	195.310795	1076.470373	-33.755195	268.528873	1032.996138	-27.079792	205.311079	1108.350608	-51.126505	395.502998	958.417981	-56.938285	403.240658	945.963987	-158.609481	340.023677	824.450912	-45.813653	335.727969	737.593402	-63.301840	275.696742	669.512887	-73.156028	352.984160	734.540985	-96.375164	216.123529	550.921546	-84.522483	146.377328	525.242378	-118.434496	424.570453	442.992435	-114.259240	337.766478	426.777324	-48.120927	38.303485	996.532673	-412.993513	106.929459	941.133135	-414.289799	139.625984	959.355458	-399.811109	141.507927	855.774446	-404.545606	231.725169	699.482836	-370.093461	210.916525	685.655138	-280.258359	142.701635	577.994950	-401.702755	120.017612	495.586265	-377.045680	47.731497	438.133880	-392.818280	114.668211	500.742252	-341.056985	-35.441033	332.330174	-393.398243	-113.029627	312.021236	-361.248973	158.245415	212.712783	-352.611498	79.966574	206.874203	-411.505376	-260.075228	976.799032	-230.130492	-75.895227	84.022059	-435.003982	-81.873147	79.418693	-37.720986	
6	0.0300	407.604799	1487.687967	-65.710081	402.656437	1466.232371	-348.353244	381.849439	1522.140694	-215.501597	354.557857	1381.584304	-212.510481	509.305141	1169.811190	26.506853	690.999149	935.925151	-40.747453	514.159100	1165.789903	-454.592983	691.553646	929.272006	-421.444063	-140.990291	1202.388150	-238.346455	19.897463	1267.305559	-375.473106	18.573301	1257.787525	-80.804026	59.550351	1189.709018	-348.306623	37.961096	1202.584746	-100.870267	-119.557583	1241.927665	-185.807679	-105.086428	1253.205366	-294.308921	-28.926213	1131.108571	-38.083575	-25.585240	1103.170055	-406.638240	107.883360	1082.226445	-27.112134	195.324711	1076.544253	-33.776268	268.558362	1033.138965	-27.133069	205.264659	1108.278904	-51.305926	395.544898	958.506665	-56.915124	400.004878	948.038663	-163.526660	340.103209	824.590653	-45.833882	327.284335	738.519388	-69.799343	275.735538	669.675248	-73.124455	347.636971	737.834517	-103.764365	216.127522	550.938092	-84.668724	146.432463	525.450642	-118.245006	424.426638	443.017032	-114.314215	337.694669	426.921721	-48.139903	37.871665	996.549529	-413.728535	106.895585	941.188515	-414.297697	135.890534	961.768478	-405.378484	138.417803	858.093504	-409.864469	226.023593	702.118974	-376.124100	210.823162	685.568005	-280.339923	142.627729	577.857565	-401.773887	113.021022	498.777019	-383.074234	47.257122	438.370073	-394.084714	114.678484	500.583108	-341.093523	-35.610954	332.467057	-393.688890	-113.206167	311.597000	-361.032196	158.309317	212.662512	-352.611916	75.446404	211.775210	-417.667083	-260.092129	976.871380	-229.984805	-76.279864	83.532968	-435.324289	-81.960504	79.501567	-37.689413	
